<?xml version="1.0" encoding="UTF-8" standalone="no"?>
<!-- Created with Inkscape (http://www.inkscape.org/) -->

<svg
   xmlns:dc="http://purl.org/dc/elements/1.1/"
   xmlns:cc="http://creativecommons.org/ns#"
   xmlns:rdf="http://www.w3.org/1999/02/22-rdf-syntax-ns#"
   xmlns:svg="http://www.w3.org/2000/svg"
   xmlns="http://www.w3.org/2000/svg"
   xmlns:sodipodi="http://sodipodi.sourceforge.net/DTD/sodipodi-0.dtd"
   xmlns:inkscape="http://www.inkscape.org/namespaces/inkscape"
   version="1.1"
   id="svg815"
   xml:space="preserve"
   width="79.833809"
   height="29.273426"
   viewBox="0 0 79.833809 29.273426"
   sodipodi:docname="icon.svg"
   inkscape:version="0.92.4 (5da689c313, 2019-01-14)"><metadata
     id="metadata821"><rdf:RDF><cc:Work
         rdf:about=""><dc:format>image/svg+xml</dc:format><dc:type
           rdf:resource="http://purl.org/dc/dcmitype/StillImage" /><dc:title></dc:title></cc:Work></rdf:RDF></metadata><defs
     id="defs819" /><sodipodi:namedview
     pagecolor="#ffffff"
     bordercolor="#666666"
     borderopacity="1"
     objecttolerance="10"
     gridtolerance="10"
     guidetolerance="10"
     inkscape:pageopacity="0"
     inkscape:pageshadow="2"
     inkscape:window-width="1366"
     inkscape:window-height="746"
     id="namedview817"
     showgrid="false"
     inkscape:zoom="10.233759"
     inkscape:cx="39.916904"
     inkscape:cy="14.636713"
     inkscape:window-x="-8"
     inkscape:window-y="-8"
     inkscape:window-maximized="1"
     inkscape:current-layer="g823" /><g
     id="g823"
     inkscape:groupmode="layer"
     inkscape:label="icon"
     transform="matrix(1.3333333,0,0,1.3333333,0,1.065169e-6)"><g
       id="g825"><path
         d="M 14,21.891 22.16,0 59.875,0.031 51.316,21.953 Z"
         style="fill:#000000;fill-opacity:1;fill-rule:nonzero;stroke:none"
         id="path827"
         inkscape:connector-curvature="0" /><path
         d="m 31.711,8.875 c 0,0.781 -0.242,1.438 -0.719,1.969 -0.469,0.531 -1.117,0.933 -1.937,1.203 l 2.265,4.125 h -2.812 l -1.844,-3.578 h -1.406 l -0.828,3.578 h -2.516 l 2.25,-9.766 h 3.813 c 1.187,0 2.101,0.203 2.75,0.61 0.656,0.406 0.984,1.027 0.984,1.859 z m -2.703,0.422 c 0,-0.395 -0.133,-0.676 -0.391,-0.844 -0.25,-0.164 -0.621,-0.25 -1.109,-0.25 h -1.235 l -0.609,2.641 h 1.234 c 0.665,0 1.18,-0.133 1.547,-0.406 0.375,-0.282 0.563,-0.661 0.563,-1.141 z"
         style="fill:#ffffff;fill-opacity:1;fill-rule:nonzero;stroke:none"
         id="path829"
         inkscape:connector-curvature="0" /><path
         d="m 41.75,6.406 -0.437,1.86 H 36.766 L 36.359,10 h 4.219 l -0.422,1.859 h -4.234 l -0.563,2.469 h 4.547 l -0.422,1.844 h -7.062 l 2.25,-9.766 z"
         style="fill:#ffffff;fill-opacity:1;fill-rule:nonzero;stroke:none"
         id="path831"
         inkscape:connector-curvature="0" /><path
         d="m 45.172,16.344 c -0.836,0 -1.578,-0.071 -2.234,-0.203 -0.649,-0.145 -1.211,-0.328 -1.688,-0.547 l 0.5,-2.344 h 0.281 c 0.446,0.418 0.973,0.742 1.578,0.969 0.614,0.219 1.27,0.328 1.969,0.328 0.719,0 1.242,-0.094 1.578,-0.281 0.332,-0.196 0.5,-0.477 0.5,-0.844 0,-0.133 -0.027,-0.25 -0.078,-0.344 C 47.523,12.977 47.422,12.875 47.266,12.781 47.098,12.688 46.879,12.594 46.609,12.5 46.336,12.398 45.988,12.289 45.563,12.172 45.082,12.039 44.648,11.898 44.266,11.75 43.891,11.594 43.57,11.414 43.313,11.203 43.039,10.984 42.836,10.734 42.703,10.453 42.566,10.172 42.5,9.84 42.5,9.453 c 0,-0.976 0.426,-1.758 1.281,-2.344 0.864,-0.582 2.047,-0.875 3.547,-0.875 0.719,0 1.395,0.063 2.031,0.188 0.645,0.117 1.192,0.273 1.641,0.469 l -0.484,2.25 H 50.25 C 49.914,8.828 49.469,8.57 48.906,8.359 48.352,8.141 47.742,8.031 47.078,8.031 c -0.648,0 -1.148,0.094 -1.5,0.282 -0.355,0.187 -0.531,0.449 -0.531,0.781 0,0.156 0.023,0.289 0.078,0.39 0.051,0.094 0.16,0.188 0.328,0.282 0.133,0.093 0.352,0.195 0.656,0.297 0.301,0.093 0.657,0.199 1.063,0.312 1.094,0.293 1.875,0.637 2.344,1.031 0.468,0.387 0.703,0.918 0.703,1.594 0,0.563 -0.133,1.059 -0.391,1.484 -0.25,0.43 -0.601,0.778 -1.047,1.047 -0.468,0.282 -1,0.492 -1.593,0.625 -0.594,0.125 -1.266,0.188 -2.016,0.188 z"
         style="fill:#ffffff;fill-opacity:1;fill-rule:nonzero;stroke:none"
         id="path833"
         inkscape:connector-curvature="0" /><path
         d="m 15.348,4.699 -0.703,3.047 h -7.5 l -0.657,2.859 h 6.953 l -0.718,3.063 H 5.77 l -0.938,4.047 h 7.5 l -0.687,3.047 H 0.004 L 3.707,4.699 Z"
         style="fill:#000000;fill-opacity:1;fill-rule:nonzero;stroke:none"
         id="path835"
         inkscape:connector-curvature="0" /></g></g></svg>