<?xml version="1.0" encoding="UTF-8" standalone="no"?>
<!-- Created with Inkscape (http://www.inkscape.org/) -->

<svg
   xmlns:dc="http://purl.org/dc/elements/1.1/"
   xmlns:cc="http://creativecommons.org/ns#"
   xmlns:rdf="http://www.w3.org/1999/02/22-rdf-syntax-ns#"
   xmlns:svg="http://www.w3.org/2000/svg"
   xmlns="http://www.w3.org/2000/svg"
   xmlns:sodipodi="http://sodipodi.sourceforge.net/DTD/sodipodi-0.dtd"
   xmlns:inkscape="http://www.inkscape.org/namespaces/inkscape"
   version="1.1"
   id="svg815"
   xml:space="preserve"
   width="385.54037"
   height="83.948097"
   viewBox="0 0 385.54037 83.948097"
   sodipodi:docname="Logo-Principal.svg"
   inkscape:version="0.92.4 (5da689c313, 2019-01-14)"><metadata
     id="metadata821"><rdf:RDF><cc:Work
         rdf:about=""><dc:format>image/svg+xml</dc:format><dc:type
           rdf:resource="http://purl.org/dc/dcmitype/StillImage" /><dc:title></dc:title></cc:Work></rdf:RDF></metadata><defs
     id="defs819" /><sodipodi:namedview
     pagecolor="#ffffff"
     bordercolor="#666666"
     borderopacity="1"
     objecttolerance="10"
     gridtolerance="10"
     guidetolerance="10"
     inkscape:pageopacity="0"
     inkscape:pageshadow="2"
     inkscape:window-width="1366"
     inkscape:window-height="746"
     id="namedview817"
     showgrid="false"
     inkscape:zoom="2.1191036"
     inkscape:cx="192.77019"
     inkscape:cy="41.974049"
     inkscape:window-x="-8"
     inkscape:window-y="-8"
     inkscape:window-maximized="1"
     inkscape:current-layer="g823" /><g
     id="g823"
     inkscape:groupmode="layer"
     inkscape:label="Logo-Principal"
     transform="matrix(1.3333333,0,0,1.3333333,0,2.0987025e-6)"><g
       id="g825"><path
         d="m 22.789,20.688 -1.047,4.515 H 10.617 l -1,4.266 H 19.945 L 18.898,34 H 8.57 l -1.39,6.016 h 11.125 l -1.032,4.515 H -0.008 L 5.508,20.688 Z"
         style="fill:#000000;fill-opacity:1;fill-rule:nonzero;stroke:none"
         id="path827"
         inkscape:connector-curvature="0" /><path
         d="m 54.535,30.547 c 0,0.336 -0.027,0.695 -0.078,1.078 -0.043,0.387 -0.109,0.789 -0.203,1.203 l -2.703,11.703 h -5.828 l 2.078,-8.984 c 0.133,-0.613 0.258,-1.203 0.375,-1.766 0.113,-0.57 0.172,-1.035 0.172,-1.39 0,-0.614 -0.172,-1.067 -0.516,-1.36 -0.344,-0.289 -0.953,-0.437 -1.828,-0.437 -0.418,0 -0.891,0.101 -1.422,0.297 -0.523,0.199 -1.156,0.496 -1.906,0.89 l -2.953,12.75 h -5.828 l 2.093,-8.984 c 0.114,-0.52 0.227,-1.082 0.344,-1.688 0.113,-0.613 0.172,-1.082 0.172,-1.406 0,-0.644 -0.164,-1.113 -0.484,-1.406 -0.325,-0.301 -0.93,-0.453 -1.813,-0.453 -0.461,0 -0.965,0.109 -1.516,0.328 -0.543,0.211 -1.152,0.496 -1.828,0.859 L 27.91,44.531 H 22.113 L 26.27,26.547 h 5.796 l -0.453,1.984 c 1.176,-0.781 2.235,-1.39 3.172,-1.828 0.945,-0.437 1.969,-0.656 3.063,-0.656 1.187,0 2.187,0.266 3,0.797 0.812,0.531 1.379,1.308 1.703,2.328 1.426,-1.031 2.703,-1.805 3.828,-2.328 1.133,-0.531 2.234,-0.797 3.297,-0.797 1.582,0 2.785,0.391 3.609,1.172 0.832,0.781 1.25,1.89 1.25,3.328 z"
         style="fill:#000000;fill-opacity:1;fill-rule:nonzero;stroke:none"
         id="path829"
         inkscape:connector-curvature="0" /><path
         d="m 78.082,32.297 c 0,1.637 -0.266,3.226 -0.797,4.766 -0.523,1.531 -1.246,2.871 -2.172,4.015 -0.937,1.156 -2.039,2.086 -3.297,2.781 -1.261,0.688 -2.652,1.032 -4.171,1.032 -1.012,0 -1.915,-0.106 -2.704,-0.313 -0.793,-0.195 -1.5,-0.508 -2.125,-0.937 l -0.421,0.89 h -5.563 l 5.75,-24.922 h 5.797 l -2.031,8.813 c 1.031,-0.719 2.015,-1.289 2.953,-1.719 0.937,-0.437 1.976,-0.656 3.125,-0.656 1.863,0 3.269,0.555 4.219,1.656 0.957,1.106 1.437,2.637 1.437,4.594 z m -6.094,1.078 c 0,-1.008 -0.218,-1.773 -0.656,-2.297 -0.437,-0.519 -1.199,-0.781 -2.281,-0.781 -0.563,0 -1.121,0.101 -1.672,0.297 -0.543,0.199 -1.117,0.461 -1.719,0.781 l -2.094,9.031 c 0.375,0.149 0.77,0.266 1.188,0.36 0.414,0.086 0.891,0.125 1.422,0.125 1.781,0 3.191,-0.696 4.234,-2.094 1.051,-1.406 1.578,-3.211 1.578,-5.422 z"
         style="fill:#000000;fill-opacity:1;fill-rule:nonzero;stroke:none"
         id="path831"
         inkscape:connector-curvature="0" /><path
         d="m 94.328,33.219 c 0.031,-0.188 0.051,-0.36 0.063,-0.516 0.019,-0.164 0.031,-0.332 0.031,-0.5 0,-0.844 -0.266,-1.488 -0.797,-1.937 -0.523,-0.446 -1.273,-0.672 -2.25,-0.672 -1.187,0 -2.184,0.324 -2.984,0.969 -0.805,0.636 -1.414,1.523 -1.828,2.656 z m -4.406,11.797 c -3.063,0 -5.43,-0.676 -7.094,-2.032 -1.668,-1.363 -2.5,-3.238 -2.5,-5.625 0,-1.632 0.27,-3.132 0.813,-4.5 0.539,-1.363 1.328,-2.566 2.359,-3.609 0.977,-1 2.203,-1.789 3.672,-2.375 1.476,-0.594 3.098,-0.891 4.859,-0.891 2.676,0 4.696,0.543 6.063,1.625 1.363,1.086 2.047,2.684 2.047,4.797 0,0.731 -0.075,1.446 -0.219,2.141 -0.149,0.687 -0.34,1.375 -0.578,2.062 H 86 c 0,0.063 0,0.125 0,0.188 0,0.055 0,0.109 0,0.172 0,1.25 0.438,2.23 1.313,2.937 0.875,0.699 2.21,1.047 4.015,1.047 1.258,0 2.453,-0.211 3.578,-0.64 1.125,-0.426 2.102,-0.899 2.938,-1.422 h 0.64 l -1.078,4.625 c -1.117,0.5 -2.293,0.875 -3.531,1.125 -1.242,0.25 -2.559,0.375 -3.953,0.375 z"
         style="fill:#000000;fill-opacity:1;fill-rule:nonzero;stroke:none"
         id="path833"
         inkscape:connector-curvature="0" /><path
         d="m 124.824,19.609 -5.765,24.922 h -5.797 l 0.437,-1.875 c -0.554,0.356 -1.043,0.672 -1.469,0.953 -0.417,0.282 -0.886,0.543 -1.406,0.782 -0.48,0.207 -0.953,0.363 -1.422,0.468 -0.461,0.114 -1.011,0.172 -1.656,0.172 -1.742,0 -3.133,-0.566 -4.172,-1.703 -1.043,-1.133 -1.562,-2.738 -1.562,-4.812 0,-1.707 0.269,-3.313 0.812,-4.813 0.551,-1.5 1.313,-2.828 2.281,-3.984 0.938,-1.125 2.047,-2.016 3.329,-2.672 1.281,-0.664 2.617,-1 4.015,-1 0.977,0 1.832,0.101 2.563,0.297 0.726,0.199 1.472,0.508 2.234,0.922 l 1.781,-7.657 z m -8.375,11.141 c -0.312,-0.156 -0.719,-0.289 -1.219,-0.406 -0.5,-0.125 -0.945,-0.188 -1.328,-0.188 -0.918,0 -1.746,0.203 -2.484,0.61 -0.73,0.406 -1.355,0.961 -1.875,1.656 -0.461,0.637 -0.824,1.445 -1.094,2.422 -0.261,0.969 -0.39,1.906 -0.39,2.812 0,1.086 0.25,1.871 0.75,2.36 0.5,0.492 1.265,0.734 2.296,0.734 0.52,0 1.071,-0.113 1.657,-0.344 0.582,-0.238 1.133,-0.519 1.656,-0.843 z"
         style="fill:#000000;fill-opacity:1;fill-rule:nonzero;stroke:none"
         id="path835"
         inkscape:connector-curvature="0" /><path
         d="m 147.758,19.609 -5.766,24.922 h -5.797 l 0.438,-1.875 c -0.555,0.356 -1.043,0.672 -1.469,0.953 -0.418,0.282 -0.887,0.543 -1.406,0.782 -0.481,0.207 -0.953,0.363 -1.422,0.468 -0.461,0.114 -1.012,0.172 -1.656,0.172 -1.742,0 -3.133,-0.566 -4.172,-1.703 -1.043,-1.133 -1.563,-2.738 -1.563,-4.812 0,-1.707 0.27,-3.313 0.813,-4.813 0.551,-1.5 1.312,-2.828 2.281,-3.984 0.938,-1.125 2.047,-2.016 3.328,-2.672 1.281,-0.664 2.617,-1 4.016,-1 0.976,0 1.832,0.101 2.562,0.297 0.727,0.199 1.473,0.508 2.235,0.922 l 1.781,-7.657 z m -8.375,11.141 c -0.313,-0.156 -0.719,-0.289 -1.219,-0.406 -0.5,-0.125 -0.945,-0.188 -1.328,-0.188 -0.918,0 -1.746,0.203 -2.484,0.61 -0.731,0.406 -1.356,0.961 -1.875,1.656 -0.461,0.637 -0.825,1.445 -1.094,2.422 -0.262,0.969 -0.391,1.906 -0.391,2.812 0,1.086 0.25,1.871 0.75,2.36 0.5,0.492 1.266,0.734 2.297,0.734 0.52,0 1.07,-0.113 1.656,-0.344 0.582,-0.238 1.133,-0.519 1.657,-0.843 z"
         style="fill:#000000;fill-opacity:1;fill-rule:nonzero;stroke:none"
         id="path837"
         inkscape:connector-curvature="0" /><path
         d="m 161.969,33.219 c 0.031,-0.188 0.051,-0.36 0.062,-0.516 0.02,-0.164 0.032,-0.332 0.032,-0.5 0,-0.844 -0.266,-1.488 -0.797,-1.937 -0.524,-0.446 -1.274,-0.672 -2.25,-0.672 -1.188,0 -2.184,0.324 -2.985,0.969 -0.804,0.636 -1.414,1.523 -1.828,2.656 z m -4.406,11.797 c -3.063,0 -5.43,-0.676 -7.094,-2.032 -1.668,-1.363 -2.5,-3.238 -2.5,-5.625 0,-1.632 0.269,-3.132 0.812,-4.5 0.539,-1.363 1.328,-2.566 2.36,-3.609 0.976,-1 2.203,-1.789 3.672,-2.375 1.476,-0.594 3.097,-0.891 4.859,-0.891 2.676,0 4.695,0.543 6.062,1.625 1.364,1.086 2.047,2.684 2.047,4.797 0,0.731 -0.074,1.446 -0.218,2.141 -0.149,0.687 -0.34,1.375 -0.579,2.062 h -13.343 c 0,0.063 0,0.125 0,0.188 0,0.055 0,0.109 0,0.172 0,1.25 0.437,2.23 1.312,2.937 0.875,0.699 2.211,1.047 4.016,1.047 1.258,0 2.453,-0.211 3.578,-0.64 1.125,-0.426 2.101,-0.899 2.937,-1.422 h 0.641 l -1.078,4.625 c -1.117,0.5 -2.293,0.875 -3.531,1.125 -1.243,0.25 -2.559,0.375 -3.953,0.375 z"
         style="fill:#000000;fill-opacity:1;fill-rule:nonzero;stroke:none"
         id="path839"
         inkscape:connector-curvature="0" /><path
         d="m 192.465,19.609 -5.766,24.922 h -5.797 l 0.438,-1.875 c -0.555,0.356 -1.043,0.672 -1.469,0.953 -0.418,0.282 -0.887,0.543 -1.406,0.782 -0.481,0.207 -0.953,0.363 -1.422,0.468 -0.461,0.114 -1.012,0.172 -1.656,0.172 -1.742,0 -3.133,-0.566 -4.172,-1.703 -1.043,-1.133 -1.563,-2.738 -1.563,-4.812 0,-1.707 0.27,-3.313 0.813,-4.813 0.551,-1.5 1.312,-2.828 2.281,-3.984 0.938,-1.125 2.047,-2.016 3.328,-2.672 1.281,-0.664 2.617,-1 4.016,-1 0.976,0 1.832,0.101 2.562,0.297 0.727,0.199 1.473,0.508 2.235,0.922 l 1.781,-7.657 z M 184.09,30.75 c -0.313,-0.156 -0.719,-0.289 -1.219,-0.406 -0.5,-0.125 -0.945,-0.188 -1.328,-0.188 -0.918,0 -1.746,0.203 -2.484,0.61 -0.731,0.406 -1.356,0.961 -1.875,1.656 -0.461,0.637 -0.825,1.445 -1.094,2.422 -0.262,0.969 -0.391,1.906 -0.391,2.812 0,1.086 0.25,1.871 0.75,2.36 0.5,0.492 1.266,0.734 2.297,0.734 0.52,0 1.07,-0.113 1.656,-0.344 0.582,-0.238 1.133,-0.519 1.657,-0.843 z"
         style="fill:#000000;fill-opacity:1;fill-rule:nonzero;stroke:none"
         id="path841"
         inkscape:connector-curvature="0" /><path
         d="M 189.473,47.563 207.203,0 289.156,0.07 270.559,47.707 Z"
         style="fill:#000000;fill-opacity:1;fill-rule:nonzero;stroke:none"
         id="path843"
         inkscape:connector-curvature="0" /><path
         d="m 227.961,19.277 c 0,1.7 -0.523,3.125 -1.563,4.282 -1.031,1.156 -2.433,2.031 -4.203,2.625 l 4.891,8.953 h -6.109 l -3.985,-7.766 h -3.078 l -1.781,7.766 h -5.469 l 4.891,-21.203 h 8.281 c 2.582,0 4.582,0.445 6,1.328 1.414,0.875 2.125,2.215 2.125,4.015 z m -5.891,0.907 c 0,-0.852 -0.277,-1.457 -0.828,-1.813 -0.543,-0.351 -1.344,-0.531 -2.406,-0.531 h -2.703 l -1.328,5.703 h 2.687 c 1.457,0 2.582,-0.297 3.375,-0.891 0.801,-0.593 1.203,-1.414 1.203,-2.468 z"
         style="fill:#ffffff;fill-opacity:1;fill-rule:nonzero;stroke:none"
         id="path845"
         inkscape:connector-curvature="0" /><path
         d="m 249.746,13.934 -0.922,4.015 h -9.89 l -0.891,3.797 h 9.187 l -0.937,4.016 h -9.188 l -1.234,5.359 h 9.891 l -0.907,4.016 h -15.359 l 4.891,-21.203 z"
         style="fill:#ffffff;fill-opacity:1;fill-rule:nonzero;stroke:none"
         id="path847"
         inkscape:connector-curvature="0" /><path
         d="m 257.207,35.527 c -1.812,0 -3.43,-0.156 -4.844,-0.468 -1.418,-0.321 -2.648,-0.711 -3.687,-1.172 l 1.109,-5.078 h 0.594 c 0.976,0.886 2.125,1.574 3.437,2.062 1.321,0.492 2.743,0.734 4.266,0.734 1.551,0 2.691,-0.207 3.422,-0.625 0.726,-0.425 1.094,-1.035 1.094,-1.828 0,-0.289 -0.059,-0.539 -0.172,-0.75 -0.117,-0.218 -0.344,-0.429 -0.688,-0.64 -0.343,-0.207 -0.812,-0.41 -1.406,-0.61 -0.594,-0.207 -1.359,-0.445 -2.297,-0.718 -1.031,-0.282 -1.961,-0.586 -2.781,-0.922 -0.824,-0.332 -1.527,-0.727 -2.109,-1.188 -0.575,-0.457 -1.012,-0.988 -1.313,-1.594 -0.305,-0.613 -0.453,-1.343 -0.453,-2.187 0,-2.125 0.937,-3.816 2.812,-5.078 1.875,-1.27 4.442,-1.906 7.704,-1.906 1.562,0 3.035,0.132 4.421,0.39 1.395,0.25 2.579,0.594 3.547,1.031 l -1.031,4.875 h -0.594 c -0.742,-0.675 -1.715,-1.242 -2.922,-1.703 -1.211,-0.468 -2.531,-0.703 -3.968,-0.703 -1.407,0 -2.496,0.211 -3.266,0.625 -0.762,0.406 -1.141,0.969 -1.141,1.688 0,0.336 0.055,0.609 0.172,0.828 0.114,0.219 0.344,0.433 0.688,0.64 0.312,0.188 0.789,0.399 1.437,0.625 0.657,0.219 1.426,0.45 2.313,0.688 2.375,0.637 4.066,1.383 5.078,2.234 1.019,0.856 1.531,2.012 1.531,3.469 0,1.231 -0.277,2.309 -0.828,3.234 -0.555,0.93 -1.312,1.684 -2.281,2.266 -1.012,0.617 -2.164,1.07 -3.453,1.359 -1.293,0.282 -2.758,0.422 -4.391,0.422 z"
         style="fill:#ffffff;fill-opacity:1;fill-rule:nonzero;stroke:none"
         id="path849"
         inkscape:connector-curvature="0" /><path
         d="m 100.371,53.758 c 0,-0.281 -0.047,-0.52 -0.141,-0.719 -0.085,-0.195 -0.21,-0.363 -0.375,-0.5 -0.21,-0.164 -0.46,-0.281 -0.75,-0.344 -0.292,-0.062 -0.652,-0.093 -1.078,-0.093 H 96.23 l -1.062,4.593 h 1.672 c 0.531,0 0.984,-0.047 1.359,-0.14 0.383,-0.102 0.739,-0.274 1.063,-0.516 0.343,-0.258 0.613,-0.594 0.812,-1 0.196,-0.406 0.297,-0.832 0.297,-1.281 z m 1.781,8.953 h -1.875 l -3.14,-4.766 h -2.266 l -1.094,4.766 h -1.593 l 2.75,-11.922 h 3.234 c 0.727,0 1.316,0.047 1.766,0.141 0.457,0.093 0.859,0.265 1.203,0.515 0.289,0.219 0.519,0.485 0.687,0.797 0.176,0.305 0.266,0.688 0.266,1.156 0,0.993 -0.313,1.86 -0.938,2.61 -0.617,0.75 -1.429,1.273 -2.437,1.562 z"
         style="fill:#000000;fill-opacity:1;fill-rule:nonzero;stroke:none"
         id="path851"
         inkscape:connector-curvature="0" /><path
         d="m 110.711,57.273 c 0.019,-0.156 0.035,-0.285 0.047,-0.39 0.008,-0.113 0.015,-0.235 0.015,-0.36 0,-0.57 -0.156,-1.015 -0.468,-1.328 -0.313,-0.32 -0.813,-0.484 -1.5,-0.484 -0.75,0 -1.422,0.234 -2.016,0.703 -0.586,0.469 -0.98,1.09 -1.187,1.859 z m -3.016,5.641 c -1.242,0 -2.215,-0.285 -2.922,-0.859 -0.699,-0.582 -1.046,-1.438 -1.046,-2.563 0,-1.633 0.515,-3.035 1.546,-4.203 1.04,-1.176 2.321,-1.766 3.844,-1.766 1.02,0 1.797,0.258 2.328,0.766 0.539,0.5 0.813,1.203 0.813,2.109 0,0.168 -0.028,0.422 -0.078,0.766 -0.043,0.344 -0.11,0.746 -0.203,1.203 h -6.594 c -0.031,0.156 -0.059,0.313 -0.078,0.469 -0.012,0.148 -0.016,0.281 -0.016,0.406 0,0.75 0.227,1.344 0.688,1.781 0.468,0.43 1.117,0.641 1.953,0.641 0.593,0 1.195,-0.113 1.812,-0.344 0.625,-0.226 1.149,-0.488 1.578,-0.781 h 0.078 l -0.328,1.625 c -0.261,0.094 -0.5,0.184 -0.718,0.266 -0.211,0.086 -0.481,0.164 -0.813,0.234 -0.336,0.082 -0.633,0.145 -0.891,0.188 -0.25,0.039 -0.57,0.062 -0.953,0.062 z"
         style="fill:#000000;fill-opacity:1;fill-rule:nonzero;stroke:none"
         id="path853"
         inkscape:connector-curvature="0" /><path
         d="m 116.027,62.93 c -0.668,0 -1.261,-0.086 -1.781,-0.25 -0.523,-0.164 -0.961,-0.344 -1.312,-0.532 l 0.328,-1.609 h 0.078 c 0.113,0.094 0.258,0.211 0.437,0.344 0.176,0.125 0.407,0.25 0.688,0.375 0.25,0.125 0.535,0.234 0.859,0.328 0.321,0.086 0.664,0.125 1.031,0.125 0.758,0 1.352,-0.133 1.782,-0.406 0.426,-0.282 0.64,-0.692 0.64,-1.235 0,-0.281 -0.109,-0.492 -0.328,-0.64 -0.219,-0.157 -0.539,-0.285 -0.953,-0.391 -0.211,-0.039 -0.461,-0.086 -0.75,-0.141 -0.293,-0.062 -0.586,-0.132 -0.875,-0.218 -0.625,-0.176 -1.09,-0.43 -1.391,-0.766 -0.304,-0.332 -0.453,-0.738 -0.453,-1.219 0,-0.414 0.086,-0.804 0.266,-1.172 0.187,-0.363 0.461,-0.695 0.828,-1 0.332,-0.289 0.766,-0.523 1.297,-0.703 0.531,-0.175 1.117,-0.265 1.766,-0.265 0.531,0 1.062,0.07 1.593,0.203 0.532,0.137 0.961,0.305 1.297,0.5 l -0.312,1.531 h -0.078 c -0.094,-0.07 -0.231,-0.164 -0.407,-0.281 -0.168,-0.113 -0.386,-0.235 -0.656,-0.36 -0.23,-0.101 -0.5,-0.191 -0.812,-0.265 -0.305,-0.07 -0.618,-0.11 -0.938,-0.11 -0.668,0 -1.211,0.141 -1.625,0.422 -0.418,0.282 -0.625,0.664 -0.625,1.141 0,0.273 0.098,0.496 0.297,0.672 0.207,0.18 0.52,0.32 0.937,0.422 0.258,0.062 0.532,0.125 0.813,0.187 0.289,0.055 0.566,0.11 0.828,0.172 0.625,0.156 1.094,0.399 1.406,0.719 0.313,0.324 0.469,0.73 0.469,1.219 0,0.418 -0.101,0.824 -0.297,1.218 -0.199,0.387 -0.48,0.727 -0.844,1.016 -0.386,0.305 -0.851,0.543 -1.39,0.719 -0.531,0.164 -1.137,0.25 -1.813,0.25 z"
         style="fill:#000000;fill-opacity:1;fill-rule:nonzero;stroke:none"
         id="path855"
         inkscape:connector-curvature="0" /><path
         d="m 130.578,56.93 c 0,0.804 -0.125,1.574 -0.375,2.312 -0.242,0.731 -0.586,1.371 -1.031,1.922 -0.469,0.563 -1.008,1.008 -1.609,1.328 -0.606,0.313 -1.313,0.469 -2.125,0.469 -1.063,0 -1.891,-0.301 -2.485,-0.906 -0.594,-0.602 -0.89,-1.442 -0.89,-2.516 0,-0.801 0.117,-1.562 0.359,-2.281 0.238,-0.727 0.586,-1.375 1.047,-1.938 0.445,-0.55 0.988,-0.988 1.625,-1.312 0.644,-0.32 1.347,-0.485 2.109,-0.485 1.031,0 1.848,0.297 2.453,0.891 0.614,0.586 0.922,1.422 0.922,2.516 z m -2.453,3.375 c 0.289,-0.426 0.508,-0.914 0.656,-1.469 0.157,-0.563 0.235,-1.156 0.235,-1.781 0,-0.75 -0.18,-1.317 -0.532,-1.703 -0.355,-0.383 -0.859,-0.579 -1.515,-0.579 -0.524,0 -0.985,0.125 -1.391,0.375 -0.406,0.25 -0.762,0.594 -1.062,1.032 -0.293,0.418 -0.516,0.914 -0.672,1.484 -0.156,0.563 -0.235,1.149 -0.235,1.75 0,0.742 0.176,1.309 0.532,1.703 0.363,0.387 0.875,0.578 1.531,0.578 0.508,0 0.973,-0.117 1.391,-0.359 0.414,-0.25 0.769,-0.594 1.062,-1.031 z"
         style="fill:#000000;fill-opacity:1;fill-rule:nonzero;stroke:none"
         id="path857"
         inkscape:connector-curvature="0" /><path
         d="m 141.227,53.773 -2.063,8.938 h -1.5 l 0.234,-1 c -0.574,0.398 -1.109,0.703 -1.609,0.922 -0.492,0.219 -1.012,0.328 -1.562,0.328 -0.774,0 -1.375,-0.195 -1.813,-0.578 -0.43,-0.383 -0.641,-0.953 -0.641,-1.703 0,-0.176 0.008,-0.348 0.032,-0.516 0.031,-0.176 0.066,-0.375 0.109,-0.594 l 1.344,-5.797 h 1.5 l -1.172,5.094 c -0.055,0.211 -0.102,0.449 -0.141,0.719 -0.043,0.262 -0.062,0.469 -0.062,0.625 0,0.461 0.113,0.805 0.344,1.031 0.226,0.231 0.625,0.344 1.187,0.344 0.395,0 0.848,-0.113 1.359,-0.344 0.508,-0.226 0.977,-0.492 1.407,-0.797 l 1.547,-6.672 z"
         style="fill:#000000;fill-opacity:1;fill-rule:nonzero;stroke:none"
         id="path859"
         inkscape:connector-curvature="0" /><path
         d="m 149.352,55.352 h -0.079 c -0.218,-0.051 -0.421,-0.086 -0.609,-0.11 -0.18,-0.019 -0.398,-0.031 -0.656,-0.031 -0.512,0 -1.012,0.117 -1.5,0.344 -0.492,0.218 -0.965,0.492 -1.422,0.812 l -1.438,6.344 h -1.515 l 2.031,-8.938 h 1.531 l -0.312,1.313 c 0.707,-0.488 1.305,-0.828 1.797,-1.016 0.5,-0.195 0.976,-0.297 1.437,-0.297 0.258,0 0.446,0.008 0.563,0.016 0.113,0.012 0.285,0.039 0.515,0.078 z"
         style="fill:#000000;fill-opacity:1;fill-rule:nonzero;stroke:none"
         id="path861"
         inkscape:connector-curvature="0" /><path
         d="m 153.023,62.914 c -0.574,0 -1.078,-0.07 -1.515,-0.203 -0.43,-0.133 -0.805,-0.344 -1.125,-0.625 -0.324,-0.281 -0.57,-0.629 -0.735,-1.047 -0.168,-0.426 -0.25,-0.922 -0.25,-1.484 0,-0.832 0.129,-1.614 0.391,-2.344 0.258,-0.727 0.629,-1.363 1.109,-1.906 0.457,-0.539 1.032,-0.961 1.719,-1.266 0.688,-0.312 1.422,-0.469 2.203,-0.469 0.532,0 1.024,0.075 1.485,0.219 0.457,0.137 0.863,0.305 1.218,0.5 l -0.328,1.625 h -0.093 c -0.106,-0.094 -0.243,-0.203 -0.407,-0.328 -0.156,-0.133 -0.343,-0.254 -0.562,-0.359 -0.219,-0.125 -0.465,-0.223 -0.735,-0.297 -0.261,-0.082 -0.562,-0.125 -0.906,-0.125 -1.031,0 -1.875,0.437 -2.531,1.312 -0.656,0.875 -0.984,1.946 -0.984,3.203 0,0.75 0.191,1.328 0.578,1.735 0.394,0.406 0.945,0.609 1.656,0.609 0.344,0 0.68,-0.047 1.016,-0.141 0.332,-0.101 0.617,-0.207 0.859,-0.312 0.258,-0.125 0.5,-0.254 0.719,-0.391 0.226,-0.144 0.394,-0.25 0.5,-0.312 h 0.078 l -0.313,1.64 c -0.468,0.211 -0.965,0.391 -1.484,0.547 -0.512,0.145 -1.031,0.219 -1.563,0.219 z"
         style="fill:#000000;fill-opacity:1;fill-rule:nonzero;stroke:none"
         id="path863"
         inkscape:connector-curvature="0" /><path
         d="m 164.934,57.273 c 0.019,-0.156 0.035,-0.285 0.046,-0.39 0.008,-0.113 0.016,-0.235 0.016,-0.36 0,-0.57 -0.156,-1.015 -0.469,-1.328 -0.312,-0.32 -0.812,-0.484 -1.5,-0.484 -0.75,0 -1.422,0.234 -2.015,0.703 -0.586,0.469 -0.981,1.09 -1.188,1.859 z m -3.016,5.641 c -1.242,0 -2.215,-0.285 -2.922,-0.859 -0.699,-0.582 -1.047,-1.438 -1.047,-2.563 0,-1.633 0.516,-3.035 1.547,-4.203 1.039,-1.176 2.32,-1.766 3.844,-1.766 1.019,0 1.797,0.258 2.328,0.766 0.539,0.5 0.812,1.203 0.812,2.109 0,0.168 -0.027,0.422 -0.078,0.766 -0.043,0.344 -0.109,0.746 -0.203,1.203 h -6.594 c -0.031,0.156 -0.058,0.313 -0.078,0.469 -0.011,0.148 -0.015,0.281 -0.015,0.406 0,0.75 0.226,1.344 0.687,1.781 0.469,0.43 1.117,0.641 1.953,0.641 0.594,0 1.196,-0.113 1.813,-0.344 0.625,-0.226 1.148,-0.488 1.578,-0.781 h 0.078 l -0.328,1.625 c -0.262,0.094 -0.5,0.184 -0.719,0.266 -0.211,0.086 -0.48,0.164 -0.812,0.234 -0.336,0.082 -0.633,0.145 -0.891,0.188 -0.25,0.039 -0.57,0.062 -0.953,0.062 z"
         style="fill:#000000;fill-opacity:1;fill-rule:nonzero;stroke:none"
         id="path865"
         inkscape:connector-curvature="0" /><path
         d="m 170.25,62.93 c -0.668,0 -1.262,-0.086 -1.781,-0.25 -0.524,-0.164 -0.961,-0.344 -1.313,-0.532 l 0.328,-1.609 h 0.079 c 0.113,0.094 0.257,0.211 0.437,0.344 0.176,0.125 0.406,0.25 0.688,0.375 0.25,0.125 0.535,0.234 0.859,0.328 0.32,0.086 0.664,0.125 1.031,0.125 0.758,0 1.352,-0.133 1.781,-0.406 0.426,-0.282 0.641,-0.692 0.641,-1.235 0,-0.281 -0.109,-0.492 -0.328,-0.64 -0.219,-0.157 -0.539,-0.285 -0.953,-0.391 -0.211,-0.039 -0.461,-0.086 -0.75,-0.141 -0.293,-0.062 -0.586,-0.132 -0.875,-0.218 -0.625,-0.176 -1.09,-0.43 -1.391,-0.766 -0.305,-0.332 -0.453,-0.738 -0.453,-1.219 0,-0.414 0.086,-0.804 0.266,-1.172 0.187,-0.363 0.461,-0.695 0.828,-1 0.332,-0.289 0.765,-0.523 1.297,-0.703 0.531,-0.175 1.117,-0.265 1.765,-0.265 0.532,0 1.063,0.07 1.594,0.203 0.531,0.137 0.961,0.305 1.297,0.5 l -0.313,1.531 h -0.078 c -0.093,-0.07 -0.23,-0.164 -0.406,-0.281 -0.168,-0.113 -0.387,-0.235 -0.656,-0.36 -0.231,-0.101 -0.5,-0.191 -0.813,-0.265 -0.304,-0.07 -0.617,-0.11 -0.937,-0.11 -0.668,0 -1.211,0.141 -1.625,0.422 -0.418,0.282 -0.625,0.664 -0.625,1.141 0,0.273 0.097,0.496 0.297,0.672 0.207,0.18 0.519,0.32 0.937,0.422 0.258,0.062 0.531,0.125 0.813,0.187 0.289,0.055 0.566,0.11 0.828,0.172 0.625,0.156 1.094,0.399 1.406,0.719 0.313,0.324 0.469,0.73 0.469,1.219 0,0.418 -0.102,0.824 -0.297,1.218 -0.199,0.387 -0.481,0.727 -0.844,1.016 -0.387,0.305 -0.851,0.543 -1.39,0.719 -0.532,0.164 -1.137,0.25 -1.813,0.25 z"
         style="fill:#000000;fill-opacity:1;fill-rule:nonzero;stroke:none"
         id="path867"
         inkscape:connector-curvature="0" /><path
         d="m 192.832,62.711 h -1.875 l -1.453,-1.766 c -0.711,0.731 -1.406,1.25 -2.094,1.563 -0.68,0.301 -1.375,0.453 -2.094,0.453 -0.968,0 -1.761,-0.266 -2.375,-0.797 -0.605,-0.531 -0.906,-1.219 -0.906,-2.062 0,-0.563 0.094,-1.055 0.281,-1.485 0.188,-0.426 0.438,-0.82 0.75,-1.187 0.289,-0.321 0.629,-0.61 1.016,-0.86 0.395,-0.25 0.77,-0.461 1.125,-0.64 -0.344,-0.301 -0.641,-0.629 -0.891,-0.985 -0.242,-0.351 -0.359,-0.742 -0.359,-1.172 0,-0.394 0.07,-0.769 0.219,-1.125 0.156,-0.363 0.406,-0.71 0.75,-1.046 0.312,-0.313 0.711,-0.567 1.203,-0.766 0.488,-0.195 1.039,-0.297 1.656,-0.297 0.832,0 1.504,0.211 2.016,0.625 0.508,0.418 0.765,0.953 0.765,1.609 0,0.219 -0.046,0.493 -0.14,0.813 -0.086,0.324 -0.242,0.633 -0.469,0.922 -0.242,0.324 -0.57,0.621 -0.984,0.89 -0.418,0.274 -0.977,0.5 -1.672,0.688 l 2.453,2.937 c 0.269,-0.437 0.488,-0.972 0.656,-1.609 0.176,-0.633 0.328,-1.297 0.453,-1.984 h 1.61 l -0.157,0.781 c -0.136,0.605 -0.355,1.219 -0.656,1.844 -0.305,0.617 -0.699,1.226 -1.187,1.828 z m -4.344,-8.375 c 0.145,-0.219 0.25,-0.453 0.313,-0.703 0.07,-0.25 0.109,-0.516 0.109,-0.797 0,-0.414 -0.14,-0.742 -0.422,-0.984 -0.281,-0.239 -0.609,-0.36 -0.984,-0.36 -0.563,0 -1.027,0.203 -1.391,0.61 -0.367,0.398 -0.547,0.875 -0.547,1.437 0,0.305 0.082,0.606 0.25,0.906 0.176,0.293 0.485,0.621 0.922,0.985 0.438,-0.114 0.797,-0.266 1.078,-0.453 0.282,-0.188 0.504,-0.399 0.672,-0.641 z m 0.407,5.891 -3.063,-3.719 c -0.137,0.074 -0.34,0.203 -0.609,0.39 -0.274,0.188 -0.5,0.383 -0.688,0.579 -0.211,0.242 -0.39,0.539 -0.547,0.89 -0.148,0.356 -0.218,0.75 -0.218,1.188 0,0.656 0.187,1.183 0.562,1.578 0.375,0.387 0.914,0.578 1.625,0.578 0.508,0 1.016,-0.117 1.516,-0.359 0.5,-0.25 0.972,-0.625 1.422,-1.125 z"
         style="fill:#000000;fill-opacity:1;fill-rule:nonzero;stroke:none"
         id="path869"
         inkscape:connector-curvature="0" /><path
         d="m 207.762,53.758 c 0,-0.281 -0.047,-0.52 -0.141,-0.719 -0.086,-0.195 -0.211,-0.363 -0.375,-0.5 -0.211,-0.164 -0.461,-0.281 -0.75,-0.344 -0.293,-0.062 -0.652,-0.093 -1.078,-0.093 h -1.797 l -1.062,4.593 h 1.671 c 0.532,0 0.985,-0.047 1.36,-0.14 0.383,-0.102 0.738,-0.274 1.062,-0.516 0.344,-0.258 0.614,-0.594 0.813,-1 0.195,-0.406 0.297,-0.832 0.297,-1.281 z m 1.781,8.953 h -1.875 l -3.141,-4.766 h -2.265 l -1.094,4.766 h -1.594 l 2.75,-11.922 h 3.235 c 0.726,0 1.316,0.047 1.765,0.141 0.457,0.093 0.86,0.265 1.203,0.515 0.289,0.219 0.52,0.485 0.688,0.797 0.176,0.305 0.265,0.688 0.265,1.156 0,0.993 -0.312,1.86 -0.937,2.61 -0.617,0.75 -1.43,1.273 -2.438,1.562 z"
         style="fill:#000000;fill-opacity:1;fill-rule:nonzero;stroke:none"
         id="path871"
         inkscape:connector-curvature="0" /><path
         d="m 218.098,57.273 c 0.019,-0.156 0.035,-0.285 0.047,-0.39 0.007,-0.113 0.015,-0.235 0.015,-0.36 0,-0.57 -0.156,-1.015 -0.469,-1.328 -0.312,-0.32 -0.812,-0.484 -1.5,-0.484 -0.75,0 -1.421,0.234 -2.015,0.703 -0.586,0.469 -0.981,1.09 -1.188,1.859 z m -3.016,5.641 c -1.242,0 -2.215,-0.285 -2.922,-0.859 -0.699,-0.582 -1.047,-1.438 -1.047,-2.563 0,-1.633 0.516,-3.035 1.547,-4.203 1.039,-1.176 2.32,-1.766 3.844,-1.766 1.019,0 1.797,0.258 2.328,0.766 0.539,0.5 0.813,1.203 0.813,2.109 0,0.168 -0.028,0.422 -0.079,0.766 -0.043,0.344 -0.109,0.746 -0.203,1.203 h -6.593 c -0.032,0.156 -0.059,0.313 -0.079,0.469 -0.011,0.148 -0.015,0.281 -0.015,0.406 0,0.75 0.226,1.344 0.687,1.781 0.469,0.43 1.117,0.641 1.953,0.641 0.594,0 1.196,-0.113 1.813,-0.344 0.625,-0.226 1.148,-0.488 1.578,-0.781 h 0.078 l -0.328,1.625 c -0.262,0.094 -0.5,0.184 -0.719,0.266 -0.211,0.086 -0.48,0.164 -0.812,0.234 -0.336,0.082 -0.633,0.145 -0.891,0.188 -0.25,0.039 -0.57,0.062 -0.953,0.062 z"
         style="fill:#000000;fill-opacity:1;fill-rule:nonzero;stroke:none"
         id="path873"
         inkscape:connector-curvature="0" /><path
         d="m 223.414,62.93 c -0.668,0 -1.262,-0.086 -1.781,-0.25 -0.524,-0.164 -0.961,-0.344 -1.313,-0.532 l 0.328,-1.609 h 0.079 c 0.113,0.094 0.257,0.211 0.437,0.344 0.176,0.125 0.406,0.25 0.688,0.375 0.25,0.125 0.535,0.234 0.859,0.328 0.32,0.086 0.664,0.125 1.031,0.125 0.758,0 1.352,-0.133 1.781,-0.406 0.426,-0.282 0.641,-0.692 0.641,-1.235 0,-0.281 -0.109,-0.492 -0.328,-0.64 -0.219,-0.157 -0.539,-0.285 -0.953,-0.391 -0.211,-0.039 -0.461,-0.086 -0.75,-0.141 -0.293,-0.062 -0.586,-0.132 -0.875,-0.218 -0.625,-0.176 -1.09,-0.43 -1.391,-0.766 -0.304,-0.332 -0.453,-0.738 -0.453,-1.219 0,-0.414 0.086,-0.804 0.266,-1.172 0.187,-0.363 0.461,-0.695 0.828,-1 0.332,-0.289 0.765,-0.523 1.297,-0.703 0.531,-0.175 1.117,-0.265 1.765,-0.265 0.532,0 1.063,0.07 1.594,0.203 0.531,0.137 0.961,0.305 1.297,0.5 l -0.313,1.531 h -0.078 c -0.093,-0.07 -0.23,-0.164 -0.406,-0.281 -0.168,-0.113 -0.387,-0.235 -0.656,-0.36 -0.231,-0.101 -0.5,-0.191 -0.813,-0.265 -0.304,-0.07 -0.617,-0.11 -0.937,-0.11 -0.668,0 -1.211,0.141 -1.625,0.422 -0.418,0.282 -0.625,0.664 -0.625,1.141 0,0.273 0.097,0.496 0.297,0.672 0.207,0.18 0.519,0.32 0.937,0.422 0.258,0.062 0.531,0.125 0.813,0.187 0.289,0.055 0.566,0.11 0.828,0.172 0.625,0.156 1.094,0.399 1.406,0.719 0.313,0.324 0.469,0.73 0.469,1.219 0,0.418 -0.102,0.824 -0.297,1.218 -0.199,0.387 -0.481,0.727 -0.844,1.016 -0.387,0.305 -0.851,0.543 -1.39,0.719 -0.532,0.164 -1.137,0.25 -1.813,0.25 z"
         style="fill:#000000;fill-opacity:1;fill-rule:nonzero;stroke:none"
         id="path875"
         inkscape:connector-curvature="0" /><path
         d="m 236.418,57.273 c 0.02,-0.156 0.035,-0.285 0.047,-0.39 0.008,-0.113 0.015,-0.235 0.015,-0.36 0,-0.57 -0.156,-1.015 -0.468,-1.328 -0.313,-0.32 -0.813,-0.484 -1.5,-0.484 -0.75,0 -1.422,0.234 -2.016,0.703 -0.586,0.469 -0.98,1.09 -1.187,1.859 z m -3.016,5.641 c -1.242,0 -2.214,-0.285 -2.922,-0.859 -0.699,-0.582 -1.046,-1.438 -1.046,-2.563 0,-1.633 0.515,-3.035 1.546,-4.203 1.04,-1.176 2.321,-1.766 3.844,-1.766 1.02,0 1.797,0.258 2.328,0.766 0.539,0.5 0.813,1.203 0.813,2.109 0,0.168 -0.027,0.422 -0.078,0.766 -0.043,0.344 -0.11,0.746 -0.203,1.203 h -6.594 c -0.031,0.156 -0.059,0.313 -0.078,0.469 -0.012,0.148 -0.016,0.281 -0.016,0.406 0,0.75 0.227,1.344 0.688,1.781 0.468,0.43 1.117,0.641 1.953,0.641 0.593,0 1.195,-0.113 1.812,-0.344 0.625,-0.226 1.149,-0.488 1.578,-0.781 h 0.078 l -0.328,1.625 c -0.261,0.094 -0.5,0.184 -0.718,0.266 -0.211,0.086 -0.481,0.164 -0.813,0.234 -0.336,0.082 -0.633,0.145 -0.891,0.188 -0.25,0.039 -0.57,0.062 -0.953,0.062 z"
         style="fill:#000000;fill-opacity:1;fill-rule:nonzero;stroke:none"
         id="path877"
         inkscape:connector-curvature="0" /><path
         d="m 245.5,57.992 c -0.824,0.031 -1.559,0.094 -2.203,0.188 -0.637,0.093 -1.164,0.23 -1.578,0.406 -0.43,0.18 -0.758,0.418 -0.985,0.719 -0.218,0.304 -0.328,0.679 -0.328,1.125 0,0.386 0.129,0.683 0.391,0.89 0.258,0.2 0.664,0.297 1.219,0.297 0.476,0 0.968,-0.109 1.468,-0.328 0.508,-0.219 0.985,-0.476 1.422,-0.781 z m -0.875,3.766 c -0.148,0.086 -0.344,0.203 -0.594,0.359 -0.25,0.156 -0.5,0.293 -0.75,0.406 -0.273,0.125 -0.578,0.227 -0.922,0.313 -0.336,0.082 -0.718,0.125 -1.156,0.125 -0.711,0 -1.289,-0.211 -1.734,-0.625 -0.438,-0.414 -0.656,-0.957 -0.656,-1.625 0,-0.707 0.156,-1.301 0.468,-1.781 0.313,-0.489 0.774,-0.891 1.391,-1.203 0.601,-0.301 1.328,-0.52 2.172,-0.657 0.851,-0.132 1.828,-0.218 2.922,-0.25 0.031,-0.156 0.054,-0.285 0.078,-0.39 0.019,-0.114 0.031,-0.227 0.031,-0.344 0,-0.258 -0.055,-0.469 -0.156,-0.625 -0.106,-0.156 -0.25,-0.285 -0.438,-0.391 -0.187,-0.093 -0.406,-0.156 -0.656,-0.187 -0.242,-0.039 -0.512,-0.063 -0.812,-0.063 -0.45,0 -0.965,0.078 -1.547,0.235 -0.586,0.148 -1.059,0.289 -1.422,0.422 h -0.078 l 0.297,-1.5 c 0.3,-0.082 0.742,-0.172 1.328,-0.266 0.593,-0.102 1.16,-0.156 1.703,-0.156 1.101,0 1.929,0.179 2.484,0.531 0.563,0.344 0.844,0.891 0.844,1.641 0,0.148 -0.016,0.304 -0.047,0.468 -0.023,0.157 -0.047,0.309 -0.078,0.453 l -1.406,6.063 h -1.5 z"
         style="fill:#000000;fill-opacity:1;fill-rule:nonzero;stroke:none"
         id="path879"
         inkscape:connector-curvature="0" /><path
         d="m 256.035,55.352 h -0.078 c -0.219,-0.051 -0.422,-0.086 -0.609,-0.11 -0.18,-0.019 -0.399,-0.031 -0.657,-0.031 -0.511,0 -1.011,0.117 -1.5,0.344 -0.492,0.218 -0.964,0.492 -1.421,0.812 l -1.438,6.344 h -1.516 l 2.032,-8.938 h 1.531 l -0.313,1.313 c 0.707,-0.488 1.305,-0.828 1.797,-1.016 0.5,-0.195 0.977,-0.297 1.438,-0.297 0.258,0 0.445,0.008 0.562,0.016 0.114,0.012 0.285,0.039 0.516,0.078 z"
         style="fill:#000000;fill-opacity:1;fill-rule:nonzero;stroke:none"
         id="path881"
         inkscape:connector-curvature="0" /><path
         d="m 259.707,62.914 c -0.574,0 -1.078,-0.07 -1.516,-0.203 -0.429,-0.133 -0.804,-0.344 -1.125,-0.625 -0.324,-0.281 -0.57,-0.629 -0.734,-1.047 -0.168,-0.426 -0.25,-0.922 -0.25,-1.484 0,-0.832 0.129,-1.614 0.391,-2.344 0.257,-0.727 0.629,-1.363 1.109,-1.906 0.457,-0.539 1.031,-0.961 1.719,-1.266 0.687,-0.312 1.422,-0.469 2.203,-0.469 0.531,0 1.023,0.075 1.484,0.219 0.457,0.137 0.864,0.305 1.219,0.5 l -0.328,1.625 h -0.094 c -0.105,-0.094 -0.242,-0.203 -0.406,-0.328 -0.156,-0.133 -0.344,-0.254 -0.563,-0.359 -0.218,-0.125 -0.464,-0.223 -0.734,-0.297 -0.262,-0.082 -0.562,-0.125 -0.906,-0.125 -1.031,0 -1.875,0.437 -2.531,1.312 -0.657,0.875 -0.985,1.946 -0.985,3.203 0,0.75 0.192,1.328 0.578,1.735 0.395,0.406 0.946,0.609 1.657,0.609 0.343,0 0.679,-0.047 1.015,-0.141 0.332,-0.101 0.617,-0.207 0.86,-0.312 0.257,-0.125 0.5,-0.254 0.718,-0.391 0.227,-0.144 0.395,-0.25 0.5,-0.312 h 0.078 l -0.312,1.64 c -0.469,0.211 -0.965,0.391 -1.484,0.547 -0.512,0.145 -1.032,0.219 -1.563,0.219 z"
         style="fill:#000000;fill-opacity:1;fill-rule:nonzero;stroke:none"
         id="path883"
         inkscape:connector-curvature="0" /><path
         d="m 273.336,55.805 c 0,0.136 -0.016,0.312 -0.047,0.531 -0.023,0.219 -0.055,0.414 -0.094,0.578 l -1.343,5.797 h -1.5 l 1.171,-5.094 c 0.063,-0.281 0.11,-0.523 0.141,-0.734 0.039,-0.207 0.063,-0.414 0.063,-0.625 0,-0.445 -0.118,-0.785 -0.344,-1.016 -0.219,-0.226 -0.617,-0.344 -1.188,-0.344 -0.406,0 -0.855,0.118 -1.343,0.344 -0.493,0.219 -0.965,0.485 -1.422,0.797 l -1.547,6.672 h -1.5 l 2.875,-12.453 h 1.5 l -1.047,4.5 c 0.57,-0.395 1.109,-0.695 1.609,-0.906 0.5,-0.219 1.016,-0.329 1.547,-0.329 0.77,0 1.375,0.2 1.813,0.594 0.437,0.387 0.656,0.949 0.656,1.688 z"
         style="fill:#000000;fill-opacity:1;fill-rule:nonzero;stroke:none"
         id="path885"
         inkscape:connector-curvature="0" /></g></g></svg>